<?xml version="1.0" encoding="UTF-8" standalone="no"?>
<!-- Created with Inkscape (http://www.inkscape.org/) -->

<svg
   xmlns:dc="http://purl.org/dc/elements/1.1/"
   xmlns:cc="http://creativecommons.org/ns#"
   xmlns:rdf="http://www.w3.org/1999/02/22-rdf-syntax-ns#"
   xmlns:svg="http://www.w3.org/2000/svg"
   xmlns="http://www.w3.org/2000/svg"
   xmlns:sodipodi="http://sodipodi.sourceforge.net/DTD/sodipodi-0.dtd"
   xmlns:inkscape="http://www.inkscape.org/namespaces/inkscape"
   width="646.9577"
   height="264.69208"
   id="svg2"
   version="1.1"
   inkscape:version="0.48.4 r9939"
   sodipodi:docname="facet.svg">
  <sodipodi:namedview
     id="base"
     pagecolor="#ffffff"
     bordercolor="#666666"
     borderopacity="1.0"
     inkscape:pageopacity="0.0"
     inkscape:pageshadow="2"
     inkscape:zoom="1.979899"
     inkscape:cx="316.36978"
     inkscape:cy="109.78804"
     inkscape:document-units="px"
     inkscape:current-layer="layer1"
     showgrid="false"
     inkscape:window-width="1855"
     inkscape:window-height="1056"
     inkscape:window-x="65"
     inkscape:window-y="24"
     inkscape:window-maximized="1"
     fit-margin-top="0"
     fit-margin-left="0"
     fit-margin-right="0"
     fit-margin-bottom="0" />
  <defs
     id="defs4" />
  <metadata
     id="metadata7">
    <rdf:RDF>
      <cc:Work
         rdf:about="">
        <dc:format>image/svg+xml</dc:format>
        <dc:type
           rdf:resource="http://purl.org/dc/dcmitype/StillImage" />
        <dc:title></dc:title>
      </cc:Work>
    </rdf:RDF>
  </metadata>
  <g
     inkscape:label="Layer 1"
     inkscape:groupmode="layer"
     id="layer1"
     transform="translate(0.07279283,-191.73718)">
    <path
       style="fill:none;stroke:#000000;stroke-width:1px;stroke-linecap:butt;stroke-linejoin:miter;stroke-opacity:1"
       d="m 164.65486,257.87721 68.1853,-63.63962 117.1777,38.3858 75.76144,36.87057 -86.36804,53.03301 -114.65232,-54.54824 z"
       id="path2985"
       inkscape:connector-curvature="0"
       sodipodi:nodetypes="ccccccc" />
    <path
       style="fill:#030aff;fill-opacity:0.29411765;stroke:none"
       d="m 232.84016,206.12484 117.68277,17.97788 74.24622,36.45524 -85.35789,52.74765 -115.15739,-14.95486 -59.599,-47.00364 z"
       id="path2999"
       inkscape:connector-curvature="0"
       sodipodi:nodetypes="ccccccc" />
    <path
       sodipodi:type="arc"
       style="fill:#000000;fill-opacity:1;stroke:none"
       id="path3769-3"
       sodipodi:cx="232.76785"
       sodipodi:cy="193.88004"
       sodipodi:rx="2.5892856"
       sodipodi:ry="2.5892856"
       d="m 235.35714,193.88004 c 0,1.43002 -1.15926,2.58928 -2.58929,2.58928 -1.43002,0 -2.58928,-1.15926 -2.58928,-2.58928 0,-1.43003 1.15926,-2.58929 2.58928,-2.58929 1.43003,0 2.58929,1.15926 2.58929,2.58929 z"
       transform="translate(4.9737377e-6,0.44643067)" />
    <path
       sodipodi:type="arc"
       style="fill:#000000;fill-opacity:1;stroke:none"
       id="path3769-6"
       sodipodi:cx="232.76785"
       sodipodi:cy="193.88004"
       sodipodi:rx="2.5892856"
       sodipodi:ry="2.5892856"
       d="m 235.35714,193.88004 c 0,1.43002 -1.15926,2.58928 -2.58929,2.58928 -1.43002,0 -2.58928,-1.15926 -2.58928,-2.58928 0,-1.43003 1.15926,-2.58929 2.58928,-2.58929 1.43003,0 2.58929,1.15926 2.58929,2.58929 z"
       transform="translate(-68.049853,63.8709)" />
    <path
       sodipodi:type="arc"
       style="fill:#000000;fill-opacity:1;stroke:none"
       id="path3769-7"
       sodipodi:cx="232.76785"
       sodipodi:cy="193.88004"
       sodipodi:rx="2.5892856"
       sodipodi:ry="2.5892856"
       d="m 235.35714,193.88004 c 0,1.43002 -1.15926,2.58928 -2.58929,2.58928 -1.43002,0 -2.58928,-1.15926 -2.58928,-2.58928 0,-1.43003 1.15926,-2.58929 2.58928,-2.58929 1.43003,0 2.58929,1.15926 2.58929,2.58929 z"
       transform="translate(-7.9464235,74.151788)" />
    <path
       sodipodi:type="arc"
       style="fill:#000000;fill-opacity:1;stroke:none"
       id="path3769-5"
       sodipodi:cx="232.76785"
       sodipodi:cy="193.88004"
       sodipodi:rx="2.5892856"
       sodipodi:ry="2.5892856"
       d="m 235.35714,193.88004 c 0,1.43002 -1.15926,2.58928 -2.58929,2.58928 -1.43002,0 -2.58928,-1.15926 -2.58928,-2.58928 0,-1.43003 1.15926,-2.58929 2.58928,-2.58929 1.43003,0 2.58929,1.15926 2.58929,2.58929 z"
       transform="translate(106.67497,128.61536)" />
    <path
       sodipodi:type="arc"
       style="fill:#000000;fill-opacity:1;stroke:none"
       id="path3769-35"
       sodipodi:cx="232.76785"
       sodipodi:cy="193.88004"
       sodipodi:rx="2.5892856"
       sodipodi:ry="2.5892856"
       d="m 235.35714,193.88004 c 0,1.43002 -1.15926,2.58928 -2.58929,2.58928 -1.43002,0 -2.58928,-1.15926 -2.58928,-2.58928 0,-1.43003 1.15926,-2.58929 2.58928,-2.58929 1.43003,0 2.58929,1.15926 2.58929,2.58929 z"
       transform="translate(192.90179,75.669645)" />
    <path
       sodipodi:type="arc"
       style="fill:#000000;fill-opacity:1;stroke:none"
       id="path3769-62"
       sodipodi:cx="232.76785"
       sodipodi:cy="193.88004"
       sodipodi:rx="2.5892856"
       sodipodi:ry="2.5892856"
       d="m 235.35714,193.88004 c 0,1.43002 -1.15926,2.58928 -2.58929,2.58928 -1.43002,0 -2.58928,-1.15926 -2.58928,-2.58928 0,-1.43003 1.15926,-2.58929 2.58928,-2.58929 1.43003,0 2.58929,1.15926 2.58929,2.58929 z"
       transform="translate(117.23215,38.72768)" />
    <path
       style="fill:#030aff;fill-opacity:0.29223747;stroke:#000000;stroke-width:1px;stroke-linecap:butt;stroke-linejoin:miter;stroke-opacity:1"
       d="m 2.4533529,389.22178 68.1853001,-63.63962 117.177697,38.3858 75.76144,36.87057 -86.36804,53.03301 L 62.557433,399.3233 z"
       id="path2985-3"
       inkscape:connector-curvature="0"
       sodipodi:nodetypes="ccccccc" />
    <path
       sodipodi:type="arc"
       style="fill:#000000;fill-opacity:1;stroke:none"
       id="path3769-3-7"
       sodipodi:cx="232.76785"
       sodipodi:cy="193.88004"
       sodipodi:rx="2.5892856"
       sodipodi:ry="2.5892856"
       d="m 235.35714,193.88004 c 0,1.43002 -1.15926,2.58928 -2.58929,2.58928 -1.43002,0 -2.58928,-1.15926 -2.58928,-2.58928 0,-1.43003 1.15926,-2.58929 2.58928,-2.58929 1.43003,0 2.58929,1.15926 2.58929,2.58929 z"
       transform="translate(-162.20151,131.791)" />
    <path
       sodipodi:type="arc"
       style="fill:#000000;fill-opacity:1;stroke:none"
       id="path3769-6-5"
       sodipodi:cx="232.76785"
       sodipodi:cy="193.88004"
       sodipodi:rx="2.5892856"
       sodipodi:ry="2.5892856"
       d="m 235.35714,193.88004 c 0,1.43002 -1.15926,2.58928 -2.58929,2.58928 -1.43002,0 -2.58928,-1.15926 -2.58928,-2.58928 0,-1.43003 1.15926,-2.58929 2.58928,-2.58929 1.43003,0 2.58929,1.15926 2.58929,2.58929 z"
       transform="translate(-230.25136,195.21547)" />
    <path
       sodipodi:type="arc"
       style="fill:#000000;fill-opacity:1;stroke:none"
       id="path3769-7-3"
       sodipodi:cx="232.76785"
       sodipodi:cy="193.88004"
       sodipodi:rx="2.5892856"
       sodipodi:ry="2.5892856"
       d="m 235.35714,193.88004 c 0,1.43002 -1.15926,2.58928 -2.58929,2.58928 -1.43002,0 -2.58928,-1.15926 -2.58928,-2.58928 0,-1.43003 1.15926,-2.58929 2.58928,-2.58929 1.43003,0 2.58929,1.15926 2.58929,2.58929 z"
       transform="translate(-170.14793,205.49636)" />
    <path
       sodipodi:type="arc"
       style="fill:#000000;fill-opacity:1;stroke:none"
       id="path3769-5-5"
       sodipodi:cx="232.76785"
       sodipodi:cy="193.88004"
       sodipodi:rx="2.5892856"
       sodipodi:ry="2.5892856"
       d="m 235.35714,193.88004 c 0,1.43002 -1.15926,2.58928 -2.58929,2.58928 -1.43002,0 -2.58928,-1.15926 -2.58928,-2.58928 0,-1.43003 1.15926,-2.58929 2.58928,-2.58929 1.43003,0 2.58929,1.15926 2.58929,2.58929 z"
       transform="translate(-55.526537,259.95993)" />
    <path
       sodipodi:type="arc"
       style="fill:#000000;fill-opacity:1;stroke:none"
       id="path3769-35-6"
       sodipodi:cx="232.76785"
       sodipodi:cy="193.88004"
       sodipodi:rx="2.5892856"
       sodipodi:ry="2.5892856"
       d="m 235.35714,193.88004 c 0,1.43002 -1.15926,2.58928 -2.58929,2.58928 -1.43002,0 -2.58928,-1.15926 -2.58928,-2.58928 0,-1.43003 1.15926,-2.58929 2.58928,-2.58929 1.43003,0 2.58929,1.15926 2.58929,2.58929 z"
       transform="translate(30.700283,207.01422)" />
    <path
       sodipodi:type="arc"
       style="fill:#000000;fill-opacity:1;stroke:none"
       id="path3769-62-2"
       sodipodi:cx="232.76785"
       sodipodi:cy="193.88004"
       sodipodi:rx="2.5892856"
       sodipodi:ry="2.5892856"
       d="m 235.35714,193.88004 c 0,1.43002 -1.15926,2.58928 -2.58929,2.58928 -1.43002,0 -2.58928,-1.15926 -2.58928,-2.58928 0,-1.43003 1.15926,-2.58929 2.58928,-2.58929 1.43003,0 2.58929,1.15926 2.58929,2.58929 z"
       transform="translate(-44.969357,170.07225)" />
    <path
       style="fill:#030aff;fill-opacity:0.29223747;stroke:#000000;stroke-width:1px;stroke-linecap:butt;stroke-linejoin:miter;stroke-opacity:1"
       d="m 383.28087,389.22178 68.1853,-63.63962 117.17769,38.3858 75.76144,36.87057 -86.36804,53.03301 -114.65231,-54.54824 z"
       id="path2985-3-0"
       inkscape:connector-curvature="0"
       sodipodi:nodetypes="ccccccc" />
    <path
       sodipodi:type="arc"
       style="fill:#000000;fill-opacity:1;stroke:none"
       id="path3769-3-7-1"
       sodipodi:cx="232.76785"
       sodipodi:cy="193.88004"
       sodipodi:rx="2.5892856"
       sodipodi:ry="2.5892856"
       d="m 235.35714,193.88004 c 0,1.43002 -1.15926,2.58928 -2.58929,2.58928 -1.43002,0 -2.58928,-1.15926 -2.58928,-2.58928 0,-1.43003 1.15926,-2.58929 2.58928,-2.58929 1.43003,0 2.58929,1.15926 2.58929,2.58929 z"
       transform="translate(218.626,131.791)" />
    <path
       sodipodi:type="arc"
       style="fill:#000000;fill-opacity:1;stroke:none"
       id="path3769-6-5-5"
       sodipodi:cx="232.76785"
       sodipodi:cy="193.88004"
       sodipodi:rx="2.5892856"
       sodipodi:ry="2.5892856"
       d="m 235.35714,193.88004 c 0,1.43002 -1.15926,2.58928 -2.58929,2.58928 -1.43002,0 -2.58928,-1.15926 -2.58928,-2.58928 0,-1.43003 1.15926,-2.58929 2.58928,-2.58929 1.43003,0 2.58929,1.15926 2.58929,2.58929 z"
       transform="translate(150.57615,195.21547)" />
    <path
       sodipodi:type="arc"
       style="fill:#000000;fill-opacity:1;stroke:none"
       id="path3769-7-3-5"
       sodipodi:cx="232.76785"
       sodipodi:cy="193.88004"
       sodipodi:rx="2.5892856"
       sodipodi:ry="2.5892856"
       d="m 235.35714,193.88004 c 0,1.43002 -1.15926,2.58928 -2.58929,2.58928 -1.43002,0 -2.58928,-1.15926 -2.58928,-2.58928 0,-1.43003 1.15926,-2.58929 2.58928,-2.58929 1.43003,0 2.58929,1.15926 2.58929,2.58929 z"
       transform="translate(210.67958,205.49636)" />
    <path
       sodipodi:type="arc"
       style="fill:#000000;fill-opacity:1;stroke:none"
       id="path3769-5-5-4"
       sodipodi:cx="232.76785"
       sodipodi:cy="193.88004"
       sodipodi:rx="2.5892856"
       sodipodi:ry="2.5892856"
       d="m 235.35714,193.88004 c 0,1.43002 -1.15926,2.58928 -2.58929,2.58928 -1.43002,0 -2.58928,-1.15926 -2.58928,-2.58928 0,-1.43003 1.15926,-2.58929 2.58928,-2.58929 1.43003,0 2.58929,1.15926 2.58929,2.58929 z"
       transform="translate(325.30097,259.95993)" />
    <path
       sodipodi:type="arc"
       style="fill:#000000;fill-opacity:1;stroke:none"
       id="path3769-35-6-7"
       sodipodi:cx="232.76785"
       sodipodi:cy="193.88004"
       sodipodi:rx="2.5892856"
       sodipodi:ry="2.5892856"
       d="m 235.35714,193.88004 c 0,1.43002 -1.15926,2.58928 -2.58929,2.58928 -1.43002,0 -2.58928,-1.15926 -2.58928,-2.58928 0,-1.43003 1.15926,-2.58929 2.58928,-2.58929 1.43003,0 2.58929,1.15926 2.58929,2.58929 z"
       transform="translate(411.52779,207.01422)" />
    <path
       sodipodi:type="arc"
       style="fill:#000000;fill-opacity:1;stroke:none"
       id="path3769-62-2-6"
       sodipodi:cx="232.76785"
       sodipodi:cy="193.88004"
       sodipodi:rx="2.5892856"
       sodipodi:ry="2.5892856"
       d="m 235.35714,193.88004 c 0,1.43002 -1.15926,2.58928 -2.58929,2.58928 -1.43002,0 -2.58928,-1.15926 -2.58928,-2.58928 0,-1.43003 1.15926,-2.58929 2.58928,-2.58929 1.43003,0 2.58929,1.15926 2.58929,2.58929 z"
       transform="translate(335.85815,170.07225)" />
    <path
       sodipodi:type="arc"
       style="fill:#000000;fill-opacity:1;stroke:none"
       id="path3769-3-7-8"
       sodipodi:cx="232.76785"
       sodipodi:cy="193.88004"
       sodipodi:rx="2.5892856"
       sodipodi:ry="2.5892856"
       d="m 235.35714,193.88004 c 0,1.43002 -1.15926,2.58928 -2.58929,2.58928 -1.43002,0 -2.58928,-1.15926 -2.58928,-2.58928 0,-1.43003 1.15926,-2.58929 2.58928,-2.58929 1.43003,0 2.58929,1.15926 2.58929,2.58929 z"
       transform="translate(-101.532,196.48134)" />
    <path
       sodipodi:type="arc"
       style="fill:#000000;fill-opacity:1;stroke:none"
       id="path3769-3-7-4"
       sodipodi:cx="232.76785"
       sodipodi:cy="193.88004"
       sodipodi:rx="2.5892856"
       sodipodi:ry="2.5892856"
       d="m 235.35714,193.88004 c 0,1.43002 -1.15926,2.58928 -2.58929,2.58928 -1.43002,0 -2.58928,-1.15926 -2.58928,-2.58928 0,-1.43003 1.15926,-2.58929 2.58928,-2.58929 1.43003,0 2.58929,1.15926 2.58929,2.58929 z"
       transform="translate(-192.60343,159.8742)" />
    <path
       sodipodi:type="arc"
       style="fill:#000000;fill-opacity:1;stroke:none"
       id="path3769-3-7-3"
       sodipodi:cx="232.76785"
       sodipodi:cy="193.88004"
       sodipodi:rx="2.5892856"
       sodipodi:ry="2.5892856"
       d="m 235.35714,193.88004 c 0,1.43002 -1.15926,2.58928 -2.58929,2.58928 -1.43002,0 -2.58928,-1.15926 -2.58928,-2.58928 0,-1.43003 1.15926,-2.58929 2.58928,-2.58929 1.43003,0 2.58929,1.15926 2.58929,2.58929 z"
       transform="translate(-200.81771,200.40991)" />
    <path
       sodipodi:type="arc"
       style="fill:#000000;fill-opacity:1;stroke:none"
       id="path3769-3-7-14"
       sodipodi:cx="232.76785"
       sodipodi:cy="193.88004"
       sodipodi:rx="2.5892856"
       sodipodi:ry="2.5892856"
       d="m 235.35714,193.88004 c 0,1.43002 -1.15926,2.58928 -2.58929,2.58928 -1.43002,0 -2.58928,-1.15926 -2.58928,-2.58928 0,-1.43003 1.15926,-2.58929 2.58928,-2.58929 1.43003,0 2.58929,1.15926 2.58929,2.58929 z"
       transform="translate(-112.42486,232.73134)" />
    <path
       sodipodi:type="arc"
       style="fill:#000000;fill-opacity:1;stroke:none"
       id="path3769-3-7-9"
       sodipodi:cx="232.76785"
       sodipodi:cy="193.88004"
       sodipodi:rx="2.5892856"
       sodipodi:ry="2.5892856"
       d="m 235.35714,193.88004 c 0,1.43002 -1.15926,2.58928 -2.58929,2.58928 -1.43002,0 -2.58928,-1.15926 -2.58928,-2.58928 0,-1.43003 1.15926,-2.58929 2.58928,-2.58929 1.43003,0 2.58929,1.15926 2.58929,2.58929 z"
       transform="translate(-10.460571,232.3742)" />
    <path
       sodipodi:type="arc"
       style="fill:#000000;fill-opacity:1;stroke:none"
       id="path3769-3-7-2"
       sodipodi:cx="232.76785"
       sodipodi:cy="193.88004"
       sodipodi:rx="2.5892856"
       sodipodi:ry="2.5892856"
       d="m 235.35714,193.88004 c 0,1.43002 -1.15926,2.58928 -2.58929,2.58928 -1.43002,0 -2.58928,-1.15926 -2.58928,-2.58928 0,-1.43003 1.15926,-2.58929 2.58928,-2.58929 1.43003,0 2.58929,1.15926 2.58929,2.58929 z"
       transform="translate(-7.0677142,188.44563)" />
    <path
       sodipodi:type="arc"
       style="fill:#000000;fill-opacity:1;stroke:none"
       id="path3769-3-7-0"
       sodipodi:cx="232.76785"
       sodipodi:cy="193.88004"
       sodipodi:rx="2.5892856"
       sodipodi:ry="2.5892856"
       d="m 235.35714,193.88004 c 0,1.43002 -1.15926,2.58928 -2.58929,2.58928 -1.43002,0 -2.58928,-1.15926 -2.58928,-2.58928 0,-1.43003 1.15926,-2.58929 2.58928,-2.58929 1.43003,0 2.58929,1.15926 2.58929,2.58929 z"
       transform="translate(-102.60343,150.94563)" />
    <path
       sodipodi:type="arc"
       style="fill:#000000;fill-opacity:1;stroke:none"
       id="path3769-3-7-6"
       sodipodi:cx="232.76785"
       sodipodi:cy="193.88004"
       sodipodi:rx="2.5892856"
       sodipodi:ry="2.5892856"
       d="m 235.35714,193.88004 c 0,1.43002 -1.15926,2.58928 -2.58929,2.58928 -1.43002,0 -2.58928,-1.15926 -2.58928,-2.58928 0,-1.43003 1.15926,-2.58929 2.58928,-2.58929 1.43003,0 2.58929,1.15926 2.58929,2.58929 z"
       transform="translate(279.53943,196.83849)" />
    <path
       style="fill:none;stroke:#000000;stroke-width:1px;stroke-linecap:butt;stroke-linejoin:miter;stroke-opacity:1"
       d="m -122.22846,162.17895 91.292538,36.7443 -1.136421,-45.58313"
       id="path3335"
       inkscape:connector-curvature="0"
       transform="translate(162.12871,191.73718)" />
    <path
       style="fill:none;stroke:#000000;stroke-width:1px;stroke-linecap:butt;stroke-linejoin:miter;stroke-opacity:1"
       d="m -130.18341,202.71133 99.247488,-3.66181 -10.73287,36.11296"
       id="path3337"
       inkscape:connector-curvature="0"
       transform="translate(162.12871,191.73718)" />
    <path
       style="fill:none;stroke:#000000;stroke-width:1px;stroke-linecap:butt;stroke-linejoin:miter;stroke-opacity:1"
       d="m 60.230346,234.90994 -91.039999,-36.11296 94.322994,-7.95495"
       id="path3339"
       inkscape:connector-curvature="0"
       transform="translate(162.12871,191.73718)" />
    <path
       style="fill:none;stroke:#000000;stroke-width:1px;stroke-linecap:butt;stroke-linejoin:miter;stroke-opacity:1"
       d="m 289.10714,134.15991 61.07143,65 -129.28571,-1.96428"
       id="path3341"
       inkscape:connector-curvature="0"
       transform="translate(162.12871,191.73718)" />
    <path
       style="fill:none;stroke:#000000;stroke-width:1px;stroke-linecap:butt;stroke-linejoin:miter;stroke-opacity:1"
       d="M 281.07143,207.73134 350,199.33848 l 45.89286,62.85715"
       id="path3343"
       inkscape:connector-curvature="0"
       transform="translate(162.12871,191.73718)" />
    <path
       style="fill:none;stroke:#000000;stroke-width:1px;stroke-linecap:butt;stroke-linejoin:miter;stroke-opacity:1"
       d="M 482.14286,209.33848 350.17857,198.98134 406.25,172.19563"
       id="path3345"
       inkscape:connector-curvature="0"
       transform="translate(162.12871,191.73718)" />
  </g>
</svg>
